HIERARCHY
ROOT SpineBase
{
  OFFSET 0.000000 0.000000 0.000000
  CHANNELS 6 Xposition Yposition Zposition Zrotation Xrotation Yrotation
  JOINT SpineMid
  {
    OFFSET -0.000000 31.319798 0.000000
    CHANNELS 3 Zrotation Xrotation Yrotation
    JOINT SpineShoulder
    {
      OFFSET 0.212060 23.171289 -0.764592
      CHANNELS 3 Zrotation Xrotation Yrotation
      JOINT Neck
      {
        OFFSET 0.143000 7.638877 -0.583254
        CHANNELS 3 Zrotation Xrotation Yrotation
        JOINT Head
        {
          OFFSET 0.307788 12.458842 -1.772817
          CHANNELS 3 Zrotation Xrotation Yrotation
          End Site
          {
            OFFSET 0 0 0
          }
        }
      }
      JOINT ShoulderLeft
      {
        OFFSET -17.716916 -2.737079 -0.013137
        CHANNELS 3 Zrotation Xrotation Yrotation
        JOINT ElbowLeft
        {
          OFFSET -6.110701 -29.733260 -0.312963
          CHANNELS 3 Zrotation Xrotation Yrotation
          JOINT WristLeft
          {
            OFFSET -0.463725 -23.056259 -6.771448
            CHANNELS 3 Zrotation Xrotation Yrotation
            JOINT HandLeft
            {
              OFFSET -0.430601 -2.895226 0.329443
              CHANNELS 3 Zrotation Xrotation Yrotation
              JOINT HandTipLeft
              {
                OFFSET 0.091243 -6.910699 -0.300123
                CHANNELS 3 Zrotation Xrotation Yrotation
                End Site
                {
                  OFFSET 0 0 0
                }
              }
              JOINT ThumbLeft
              {
                OFFSET 2.644473 0.576928 -0.554316
                CHANNELS 3 Zrotation Xrotation Yrotation
                End Site
                {
                  OFFSET 0 0 0
                }
              }
            }
          }
        }
      }
      JOINT ShoulderRight
      {
        OFFSET 17.020900 -2.996666 -0.776978
        CHANNELS 3 Zrotation Xrotation Yrotation
        JOINT ElbowRight
        {
          OFFSET 4.925174 -26.916074 -2.604856
          CHANNELS 3 Zrotation Xrotation Yrotation
          JOINT WristRight
          {
            OFFSET 2.181018 -22.685360 -7.944774
            CHANNELS 3 Zrotation Xrotation Yrotation
            JOINT HandRight
            {
              OFFSET -1.482477 -4.819540 -0.924252
              CHANNELS 3 Zrotation Xrotation Yrotation
              JOINT HandTipRight
              {
                OFFSET -0.637003 -7.495815 -1.768357
                CHANNELS 3 Zrotation Xrotation Yrotation
                End Site
                {
                  OFFSET 0 0 0
                }
              }
              JOINT ThumbRight
              {
                OFFSET 1.888743 -4.712514 -3.221543
                CHANNELS 3 Zrotation Xrotation Yrotation
                End Site
                {
                  OFFSET 0 0 0
                }
              }
            }
          }
        }
      }
    }
  }
  JOINT HipLeft
  {
    OFFSET -7.002270 0.147127 -3.681309
    CHANNELS 3 Zrotation Xrotation Yrotation
    JOINT KneeLeft
    {
      OFFSET -2.739047 -31.370855 3.904578
      CHANNELS 3 Zrotation Xrotation Yrotation
      JOINT AnkleLeft
      {
        OFFSET -5.949897 -38.893581 11.697934
        CHANNELS 3 Zrotation Xrotation Yrotation
        JOINT FootLeft
        {
          OFFSET 0.385453 -4.182406 -14.097446
          CHANNELS 3 Zrotation Xrotation Yrotation
          End Site
          {
            OFFSET 0 0 0
          }
        }
      }
    }
  }
  JOINT HipRight
  {
    OFFSET 8.481290 0.888699 -3.704692
    CHANNELS 3 Zrotation Xrotation Yrotation
    JOINT KneeRight
    {
      OFFSET 6.354379 -37.197326 0.635205
      CHANNELS 3 Zrotation Xrotation Yrotation
      JOINT AnkleRight
      {
        OFFSET 5.385907 -33.441444 4.391954
        CHANNELS 3 Zrotation Xrotation Yrotation
        JOINT FootRight
        {
          OFFSET -0.381717 -4.546948 -12.564084
          CHANNELS 3 Zrotation Xrotation Yrotation
          End Site
          {
            OFFSET 0 0 0
          }
        }
      }
    }
  }
}
MOTION
Frames: 5
Frame Time: 0.033333
-76.714426 77.195458 387.048991 0.328373 0.513924 -0.762496 0.183143 0.129300 0.772355 0.052640 0.071165 0.018763 -1.726703 -2.678206 -0.183653 0.000000 0.000000 0.000000 0.950342 0.090217 -0.206584 -2.778714 -2.651668 0.544278 8.233191 3.083501 -0.131492 -9.254595 7.628202 -0.324822 0.000000 0.000000 0.000000 0.000000 0.000000 0.000000 -0.566236 -0.711649 -0.033410 -0.517782 1.431120 0.324124 -14.999942 6.837698 0.844798 16.876769 -0.589681 -0.161707 0.000000 0.000000 0.000000 0.000000 0.000000 0.000000 -0.321518 -0.518240 0.759570 -0.000000 0.000000 0.000000 -0.871640 -9.700776 2.758466 0.000000 0.000000 0.000000 -0.099468 0.624362 0.958053 -1.338329 -1.379194 -0.408755 2.359739 -7.017452 -3.151773 0.000000 0.000000 0.000000
-77.106225 77.209646 387.108325 0.107840 0.515627 -0.296563 -0.105174 -0.516177 0.295604 -0.000000 0.000000 0.000000 -1.024231 -2.467170 -0.106492 0.000000 0.000000 0.000000 1.939404 0.875599 -0.215924 -2.236348 -3.307456 0.315169 8.536791 0.562979 0.858869 -10.602679 9.618704 -0.623568 0.000000 0.000000 0.000000 0.000000 0.000000 0.000000 -0.000000 0.000000 0.000000 -0.641169 2.277645 0.453387 -15.618666 6.009587 0.677795 18.718329 0.614563 -0.554854 0.000000 0.000000 0.000000 0.000000 0.000000 0.000000 -0.449432 0.571085 0.158403 0.341299 -1.088200 0.140607 -1.104029 -15.497574 3.947207 0.000000 0.000000 0.000000 0.474488 0.799641 0.528303 -1.509617 -1.300749 -0.381567 1.707414 -4.503974 -1.841615 0.000000 0.000000 0.000000
-77.565466 77.212005 387.166681 -0.002590 0.574251 0.354959 -0.000967 -0.574256 -0.354951 -0.000000 0.000000 0.000000 0.285736 -3.109903 0.124788 0.000000 0.000000 0.000000 2.629288 0.755842 -0.201302 -2.358938 -3.645028 0.158459 6.021029 -1.318581 1.285001 -10.379496 10.360983 -0.312622 0.000000 0.000000 0.000000 0.000000 0.000000 0.000000 -0.000000 0.000000 0.000000 -0.938881 3.507406 0.688036 -14.624123 1.804205 0.500923 18.147614 5.307859 -2.109903 0.000000 0.000000 0.000000 0.000000 0.000000 0.000000 -0.279183 1.377623 -0.559811 1.428748 -2.172035 0.627483 -2.446971 -18.675646 4.325179 0.000000 0.000000 0.000000 1.021497 0.848244 -0.096327 -1.020335 -1.424082 -0.273750 -0.000000 0.000000 0.000000 0.000000 0.000000 0.000000
-78.027141 77.182337 387.235580 0.020218 0.700225 1.265916 0.280239 0.171095 -1.263043 0.127698 0.105750 0.012831 1.877680 -4.839634 0.519927 0.000000 0.000000 0.000000 3.025260 -0.315271 -0.153166 -2.479377 -3.586022 -0.034633 3.171798 -1.559506 1.338819 -5.750031 12.427004 -0.542897 0.000000 0.000000 0.000000 0.000000 0.000000 0.000000 -0.424597 -0.983104 -0.017645 -1.988151 4.374050 1.179175 -12.363331 -2.128252 0.229610 16.497405 8.352738 -3.245745 0.000000 0.000000 0.000000 0.000000 0.000000 0.000000 -0.340311 2.382630 -1.577656 2.173968 -3.675236 1.060306 -3.262831 -18.775133 4.779133 0.000000 0.000000 0.000000 1.505631 0.791389 -0.981836 -1.515956 -1.516905 -0.305726 -0.000000 0.000000 0.000000 0.000000 0.000000 0.000000
-78.438570 77.149621 387.318515 0.064387 0.862821 2.305633 0.332329 0.217942 -2.301663 0.344221 0.166569 0.031761 4.495470 -5.558579 1.116314 0.000000 0.000000 0.000000 3.775646 -0.629983 -0.144434 -3.015288 -3.486606 -0.173765 0.536987 1.021133 0.852219 -5.227656 7.378568 0.001970 0.000000 0.000000 0.000000 0.000000 0.000000 0.000000 -0.732752 -1.260073 -0.040378 -4.473518 5.268087 2.252123 -6.506475 -6.906812 -0.426613 11.804619 13.490779 -3.970917 0.000000 0.000000 0.000000 0.000000 0.000000 0.000000 -0.540137 3.562673 -2.759884 3.066994 -5.403001 1.572618 -4.003009 -15.818956 4.880621 0.000000 0.000000 0.000000 1.996531 0.634984 -1.999352 -2.042684 -1.566293 -0.331327 -0.181185 -1.809059 0.679205 0.000000 0.000000 0.000000
